# xmcd CD database file
#
# Track frame offsets:
#	150
#	19030
#	39080
#	64700
#	83215
#	101268
#	116823
#	133728
#	156310
#	174955
#
# Disc length: 2576 seconds
#
# Revision: 0
# Processed by: cddbd v1.4PL0 Copyright (c) Steve Scherf et al.
# Submitted via: CDex 1.50
#
DISCID=750a0e0a
DTITLE=Walt Harper and All That Jazz - Be My Guest
DYEAR=1900
DGENRE=Jazz
TTITLE0=Nemwood
TTITLE1=An Island Cliff
TTITLE2=O'Morro
TTITLE3=Teach Me Tonight
TTITLE4=I'll Drink To That
TTITLE5=On Your Toes
TTITLE6=There's No Easy Way
TTITLE7=Rio De Janiero Blue
TTITLE8=Summer Time
TTITLE9=Just A Taste
EXTD=
EXTT0=
EXTT1=
EXTT2=
EXTT3=
EXTT4=
EXTT5=
EXTT6=
EXTT7=
EXTT8=
EXTT9=
PLAYORDER=
